<?xml version="1.0" encoding="utf-8"?>
<!-- Generator: Adobe Illustrator 24.0.3, SVG Export Plug-In . SVG Version: 6.00 Build 0)  -->
<svg version="1.1" id="Layer_1" xmlns="http://www.w3.org/2000/svg" xmlns:xlink="http://www.w3.org/1999/xlink" x="0px" y="0px"
	 viewBox="0 0 358.26 591.61" style="enable-background:new 0 0 358.26 591.61;" xml:space="preserve">
<style type="text/css">
	.st0{fill:#07A7D3;}
	.st1{fill:url(#SVGID_1_);}
	.st2{fill:url(#SVGID_2_);}
	.st3{fill:#FFFFFF;}
	.st4{opacity:0.4;fill:#10113C;enable-background:new    ;}
	.st5{fill:url(#SVGID_3_);}
	.st6{fill:url(#SVGID_4_);}
	.st7{fill:url(#SVGID_5_);}
	.st8{fill:url(#SVGID_6_);}
	.st9{fill:#EAEAEA;}
</style>
<title>Asset 1</title>
<g id="Layer_2_1_">
	<g id="Layer_1-2">
		<path class="st0" d="M179.52,591.61c-8,0-15.94-1.75-22-5.25l-148-85.44C3.38,497.38,0,492.58,0,487.42s3.38-10,9.52-13.5
			l147.21-85.59c12.14-7,31.89-7,44,0l148,85.44c6.14,3.55,9.52,8.34,9.52,13.5s-3.38,10-9.52,13.51l-147.2,85.59
			C195.46,589.86,187.49,591.61,179.52,591.61z M178.74,385.77c-7.47,0-14.94,1.64-20.63,4.93L10.9,476.29
			c-5.25,3-8.14,7-8.14,11.12s2.89,8.08,8.14,11.11l148,85.44c11.37,6.57,29.89,6.57,41.26,0l147.2-85.59c5.25-3,8.15-7,8.15-11.12
			s-2.9-8.08-8.15-11.11l-148-85.44C193.68,387.41,186.21,385.77,178.74,385.77z"/>
		
			<linearGradient id="SVGID_1_" gradientUnits="userSpaceOnUse" x1="-19.27" y1="851.91" x2="231.42" y2="851.91" gradientTransform="matrix(1 0 0 1 0 -411.28)">
			<stop  offset="0" style="stop-color:#2AC3EA"/>
			<stop  offset="0.04" style="stop-color:#2DB9E1"/>
			<stop  offset="0.4" style="stop-color:#2C7BAA"/>
			<stop  offset="0.69" style="stop-color:#29568C"/>
			<stop  offset="0.89" style="stop-color:#273F7B"/>
			<stop  offset="1" style="stop-color:#273675"/>
		</linearGradient>
		<path class="st1" d="M357.6,440.55L357.6,440.55V369.6l-89.66,12l-67.15-38.8c-11.78-6.8-30.87-6.8-42.64,0l-10.46,6.64
			L2.12,368.86v72.24l0,0c0.17,4.33,3.05,8.62,8.77,11.92l148,85.44c11.78,6.8,30.87,6.8,42.64,0l147.21-85.6
			c5.7-3.29,8.58-7.57,8.76-11.88h0.07v-0.41L357.6,440.55z"/>
		
			<radialGradient id="SVGID_2_" cx="-63.72" cy="663.93" r="559.83" gradientTransform="matrix(1 0 0 1 0 -411.28)" gradientUnits="userSpaceOnUse">
			<stop  offset="0" style="stop-color:#2AC3EA"/>
			<stop  offset="0.1" style="stop-color:#2DB7DF"/>
			<stop  offset="0.28" style="stop-color:#2D9DC8"/>
			<stop  offset="0.53" style="stop-color:#2C79A8"/>
			<stop  offset="0.84" style="stop-color:#284E86"/>
			<stop  offset="1" style="stop-color:#273675"/>
		</radialGradient>
		<path class="st2" d="M348.77,356.76l-148-85.44c-11.78-6.8-30.87-6.8-42.64,0l-147.2,85.6c-11.78,6.8-11.78,17.82,0,24.62
			l148,85.44c11.78,6.8,30.87,6.8,42.64,0l147.21-85.6C360.55,374.58,360.54,363.56,348.77,356.76z"/>
		<path class="st3" d="M348.77,377.08l-147.21,85.6c-11.78,6.8-30.87,6.8-42.64,0l-148-85.44c-4.94-2.85-7.78-6.45-8.57-10.16
			c-1.1,5.14,1.74,10.51,8.57,14.46l148,85.44c11.78,6.8,30.87,6.8,42.64,0l147.21-85.6c6.84-3.95,9.68-9.32,8.57-14.46
			C356.55,370.63,353.71,374.23,348.77,377.08z"/>
		<polygon class="st3" points="221.46,485.92 214.45,489.96 214.45,481.87 221.46,477.83 		"/>
		<polygon class="st3" points="236.12,477.45 229.11,481.5 229.11,473.41 236.12,469.36 		"/>
		<polygon class="st3" points="250.77,468.99 243.77,473.04 243.77,464.95 250.77,460.9 		"/>
		<polygon class="st3" points="238.79,492.3 231.78,496.35 231.78,488.26 238.79,484.21 		"/>
		<polygon class="st3" points="251.7,484.85 244.69,488.9 244.69,480.81 251.7,476.76 		"/>
		<polygon class="st3" points="297.79,441.85 290.78,445.89 290.78,437.8 297.79,433.76 		"/>
		<polygon class="st3" points="338.16,418.54 331.16,422.58 331.16,414.49 338.16,410.45 		"/>
		<polygon class="st3" points="265.43,460.53 258.43,464.57 258.43,456.48 265.43,452.44 		"/>
		<path class="st4" d="M171.48,430.88L71.92,373.4c-4-2.34-3.54-6.42,1.13-9.12l97.29-56.17c4.67-2.7,11.74-3,15.79-0.65
			l99.56,57.48c4.05,2.34,3.54,6.42-1.13,9.12l-97.29,56.17C182.6,432.93,175.53,433.22,171.48,430.88z"/>
		<path class="st3" d="M132.31,493.1l-82.16-47.43c-2-1.13-3.55-4.17-3.55-6.78v-6.1c0-2.62,1.59-3.82,3.55-2.68l82.16,47.43
			c2,1.13,3.55,4.17,3.55,6.78v6.1C135.86,493,134.27,494.23,132.31,493.1z"/>
		
			<linearGradient id="SVGID_3_" gradientUnits="userSpaceOnUse" x1="-19.27" y1="718.825" x2="231.42" y2="718.825" gradientTransform="matrix(1 0 0 1 0 -411.28)">
			<stop  offset="0" style="stop-color:#2AC3EA"/>
			<stop  offset="0.04" style="stop-color:#2DB9E1"/>
			<stop  offset="0.4" style="stop-color:#2C7BAA"/>
			<stop  offset="0.69" style="stop-color:#29568C"/>
			<stop  offset="0.89" style="stop-color:#273F7B"/>
			<stop  offset="1" style="stop-color:#273675"/>
		</linearGradient>
		<path class="st5" d="M357.6,307.44L357.6,307.44v-70.95l-89.66,12l-67.13-38.76c-11.78-6.8-30.87-6.8-42.64,0l-10.46,6.64
			L2.11,235.76V308h0.05c0.17,4.33,3.05,8.62,8.77,11.92l148,85.44c11.78,6.8,30.87,6.8,42.64,0l147.21-85.6
			c5.7-3.29,8.58-7.57,8.76-11.88h0.07v-0.42L357.6,307.44z"/>
		
			<radialGradient id="SVGID_4_" cx="-63.72" cy="124.82" r="559.83" gradientTransform="matrix(1 0 0 -1 0 594)" gradientUnits="userSpaceOnUse">
			<stop  offset="0" style="stop-color:#2AC3EA"/>
			<stop  offset="0.1" style="stop-color:#2DB7DF"/>
			<stop  offset="0.28" style="stop-color:#2D9DC8"/>
			<stop  offset="0.53" style="stop-color:#2C79A8"/>
			<stop  offset="0.84" style="stop-color:#284E86"/>
			<stop  offset="1" style="stop-color:#273675"/>
		</radialGradient>
		<path class="st6" d="M348.77,223.65l-148-85.44c-11.78-6.8-30.87-6.8-42.64,0l-147.2,85.6c-11.78,6.8-11.78,17.82,0,24.62
			l148,85.44c11.78,6.8,30.87,6.8,42.64,0l147.21-85.6C360.55,241.47,360.54,230.45,348.77,223.65z"/>
		<path class="st4" d="M278.28,228.82L192.05,179c-6.86-4-18-4-24.85,0l-85.77,49.92c-6.86,4-6.86,10.38,0,14.35l86.23,49.78
			c6.86,4,18,4,24.85,0l85.77-49.88C285.14,239.2,285.14,232.78,278.28,228.82z"/>
		<path class="st3" d="M348.77,244l-147.21,85.6c-11.78,6.8-30.87,6.8-42.64,0l-148-85.44C6,241.28,3.15,237.68,2.36,234
			c-1.1,5.14,1.74,10.51,8.57,14.46l148,85.44c11.78,6.8,30.87,6.8,42.64,0l147.21-85.6c6.84-4,9.68-9.32,8.57-14.46
			C356.55,237.52,353.71,241.12,348.77,244z"/>
		<polygon class="st3" points="221.46,352.81 214.45,356.85 214.45,348.76 221.46,344.72 		"/>
		<polygon class="st3" points="236.12,344.34 229.11,348.39 229.11,340.3 236.12,336.25 		"/>
		<polygon class="st3" points="250.77,335.88 243.77,339.93 243.77,331.84 250.77,327.79 		"/>
		<polygon class="st3" points="238.79,359.19 231.78,363.24 231.78,355.15 238.79,351.1 		"/>
		<polygon class="st3" points="251.7,351.74 244.69,355.79 244.69,347.7 251.7,343.65 		"/>
		<polygon class="st3" points="297.79,308.74 290.78,312.78 290.78,304.69 297.79,300.65 		"/>
		<polygon class="st3" points="338.16,285.43 331.16,289.47 331.16,281.38 338.16,277.34 		"/>
		<polygon class="st3" points="265.43,327.42 258.43,331.46 258.43,323.38 265.43,319.33 		"/>
		
			<linearGradient id="SVGID_5_" gradientUnits="userSpaceOnUse" x1="-19.27" y1="585.69" x2="231.42" y2="585.69" gradientTransform="matrix(1 0 0 1 0 -411.28)">
			<stop  offset="0" style="stop-color:#2AC3EA"/>
			<stop  offset="0.04" style="stop-color:#2DB9E1"/>
			<stop  offset="0.4" style="stop-color:#2C7BAA"/>
			<stop  offset="0.69" style="stop-color:#29568C"/>
			<stop  offset="0.89" style="stop-color:#273F7B"/>
			<stop  offset="1" style="stop-color:#273675"/>
		</linearGradient>
		<path class="st7" d="M357.6,174.33L357.6,174.33v-71l-89.66,12l-67.15-38.75c-11.78-6.8-30.87-6.8-42.64,0l-10.46,6.64
			L2.12,102.64v72.24l0,0c0.17,4.33,3.05,8.62,8.77,11.92l148,85.44c11.78,6.8,30.87,6.8,42.64,0l147.21-85.6
			c5.7-3.29,8.58-7.57,8.76-11.88h0.07v-0.41L357.6,174.33z"/>
		
			<radialGradient id="SVGID_6_" cx="-63.72" cy="-8.29" r="559.83" gradientTransform="matrix(1 0 0 -1 0 594)" gradientUnits="userSpaceOnUse">
			<stop  offset="0" style="stop-color:#2AC3EA"/>
			<stop  offset="0.1" style="stop-color:#2DB7DF"/>
			<stop  offset="0.28" style="stop-color:#2D9DC8"/>
			<stop  offset="0.53" style="stop-color:#2C79A8"/>
			<stop  offset="0.84" style="stop-color:#284E86"/>
			<stop  offset="1" style="stop-color:#273675"/>
		</radialGradient>
		<path class="st8" d="M348.77,90.54L200.78,5.1c-11.78-6.8-30.87-6.8-42.64,0L10.94,90.7c-11.78,6.8-11.78,17.82,0,24.62l148,85.44
			c11.78,6.8,30.87,6.8,42.64,0l147.21-85.6C360.55,108.36,360.54,97.34,348.77,90.54z"/>
		<path class="st3" d="M348.77,110.86l-147.21,85.6c-11.78,6.8-30.87,6.8-42.64,0L10.93,111c-4.94-2.85-7.78-6.45-8.57-10.16
			c-1.1,5.14,1.74,10.51,8.57,14.46l148,85.44c11.78,6.8,30.87,6.8,42.64,0l147.21-85.6c6.84-4,9.68-9.32,8.57-14.46
			C356.55,104.41,353.71,108,348.77,110.86z"/>
		<polygon class="st3" points="221.46,219.7 214.45,223.74 214.45,215.65 221.46,211.61 		"/>
		<polygon class="st3" points="236.12,211.23 229.11,215.28 229.11,207.19 236.12,203.14 		"/>
		<polygon class="st3" points="250.77,202.77 243.77,206.82 243.77,198.73 250.77,194.68 		"/>
		<polygon class="st3" points="238.79,226.08 231.78,230.13 231.78,222.04 238.79,217.99 		"/>
		<polygon class="st3" points="251.7,218.63 244.69,222.68 244.69,214.59 251.7,210.54 		"/>
		<polygon class="st3" points="297.79,175.63 290.78,179.67 290.78,171.58 297.79,167.54 		"/>
		<polygon class="st3" points="338.16,152.32 331.16,156.36 331.16,148.27 338.16,144.23 		"/>
		<polygon class="st3" points="265.43,194.31 258.43,198.35 258.43,190.27 265.43,186.22 		"/>
		<path class="st9" d="M179.84,140.16c-2.99,0.05-5.94-0.67-8.56-2.11l-55.65-32.65c-2.49-1.46-3.87-3.47-3.87-5.66
			s1.37-4.2,3.87-5.66L171,61.37c5.36-2.82,11.77-2.82,17.13,0L243.76,94c2.49,1.46,3.87,3.47,3.87,5.66s-1.37,4.2-3.87,5.66
			l-55.35,32.71C185.79,139.47,182.83,140.2,179.84,140.16z M179.55,61.46c-2.6-0.06-5.18,0.57-7.47,1.81L116.73,96
			c-1.79,1-2.78,2.38-2.78,3.75s1,2.69,2.78,3.74l55.65,32.65c4.7,2.44,10.3,2.44,15,0l55.35-32.71c1.79-1,2.78-2.38,2.78-3.75
			s-1-2.69-2.78-3.74L187,63.27C184.71,62.04,182.15,61.41,179.55,61.46z"/>
	</g>
</g>
</svg>
