<svg xmlns="http://www.w3.org/2000/svg" xmlns:xlink="http://www.w3.org/1999/xlink" viewBox="0 0 358.26 591.61"><defs><style>.cls-1{fill:#606161;}.cls-2{fill:url(#linear-gradient);}.cls-3{fill:url(#radial-gradient);}.cls-4{fill:#fff;}.cls-5{fill:#10113c;opacity:0.4;isolation:isolate;}.cls-6{fill:url(#linear-gradient-2);}.cls-7{fill:url(#radial-gradient-2);}.cls-8{fill:url(#linear-gradient-3);}.cls-9{fill:url(#radial-gradient-3);}.cls-10{fill:#74737f;}</style><linearGradient id="linear-gradient" x1="-19.27" y1="148.09" x2="231.42" y2="148.09" gradientTransform="matrix(1, 0, 0, -1, 0, 588.72)" gradientUnits="userSpaceOnUse"><stop offset="0" stop-color="#b4bbc4"/><stop offset="0.24" stop-color="#82889d"/><stop offset="0.6" stop-color="#485474"/><stop offset="0.87" stop-color="#263a5e"/><stop offset="1" stop-color="#183057"/></linearGradient><radialGradient id="radial-gradient" cx="-63.72" cy="336.07" r="559.83" gradientTransform="matrix(1, 0, 0, -1, 0, 588.72)" gradientUnits="userSpaceOnUse"><stop offset="0" stop-color="#a1b5b9"/><stop offset="0.15" stop-color="#90a3a9"/><stop offset="0.43" stop-color="#6e7c88"/><stop offset="0.81" stop-color="#3f4b5e"/><stop offset="1" stop-color="#28344b"/></radialGradient><linearGradient id="linear-gradient-2" x1="-19.27" y1="281.2" x2="231.42" y2="281.2" xlink:href="#linear-gradient"/><radialGradient id="radial-gradient-2" cx="-63.72" cy="469.18" r="559.83" xlink:href="#radial-gradient"/><linearGradient id="linear-gradient-3" x1="-19.27" y1="414.31" x2="231.42" y2="414.31" xlink:href="#linear-gradient"/><radialGradient id="radial-gradient-3" cx="-63.72" cy="602.29" r="559.83" gradientTransform="matrix(1, 0, 0, -1, 0, 588.72)" gradientUnits="userSpaceOnUse"><stop offset="0" stop-color="#a0b5b8"/><stop offset="0.15" stop-color="#8fa2a9"/><stop offset="0.43" stop-color="#6e7b88"/><stop offset="0.81" stop-color="#3f4a5e"/><stop offset="1" stop-color="#28344b"/></radialGradient></defs><title>Asset 1</title><g id="Layer_2" data-name="Layer 2"><g id="Layer_1-2" data-name="Layer 1"><path class="cls-1" d="M179.52,591.61c-8,0-15.94-1.75-22-5.25l-148-85.44C3.38,497.38,0,492.58,0,487.42s3.38-10,9.52-13.5l147.21-85.59c12.14-7,31.89-7,44,0l148,85.44c6.14,3.55,9.52,8.34,9.52,13.5s-3.38,10-9.52,13.51l-147.2,85.59C195.46,589.86,187.49,591.61,179.52,591.61Zm-.78-205.84c-7.47,0-14.94,1.64-20.63,4.93L10.9,476.29c-5.25,3-8.14,7-8.14,11.12s2.89,8.08,8.14,11.11l148,85.44c11.37,6.57,29.89,6.57,41.26,0l147.2-85.59c5.25-3,8.15-7,8.15-11.12s-2.9-8.08-8.15-11.11l-148-85.44C193.68,387.41,186.21,385.77,178.74,385.77Z"/><path class="cls-2" d="M357.6,440.55h0l0-70.95-89.66,12L200.79,342.8c-11.78-6.8-30.87-6.8-42.64,0l-10.46,6.64L2.12,368.86V441.1h0c.17,4.33,3.05,8.62,8.77,11.92l148,85.44c11.78,6.8,30.87,6.8,42.64,0l147.21-85.6c5.7-3.29,8.58-7.57,8.76-11.88h.07v-.41Z"/><path class="cls-3" d="M348.77,356.76l-148-85.44c-11.78-6.8-30.87-6.8-42.64,0l-147.2,85.6c-11.78,6.8-11.78,17.82,0,24.62l148,85.44c11.78,6.8,30.87,6.8,42.64,0l147.21-85.6C360.55,374.58,360.54,363.56,348.77,356.76Z"/><path class="cls-4" d="M348.77,377.08l-147.21,85.6c-11.78,6.8-30.87,6.8-42.64,0l-148-85.44c-4.94-2.85-7.78-6.45-8.57-10.16-1.1,5.14,1.74,10.51,8.57,14.46l148,85.44c11.78,6.8,30.87,6.8,42.64,0l147.21-85.6c6.84-3.95,9.68-9.32,8.57-14.46C356.55,370.63,353.71,374.23,348.77,377.08Z"/><polygon class="cls-4" points="221.46 485.92 214.45 489.96 214.45 481.87 221.46 477.83 221.46 485.92"/><polygon class="cls-4" points="236.12 477.45 229.11 481.5 229.11 473.41 236.12 469.36 236.12 477.45"/><polygon class="cls-4" points="250.77 468.99 243.77 473.04 243.77 464.95 250.77 460.9 250.77 468.99"/><polygon class="cls-4" points="238.79 492.3 231.78 496.35 231.78 488.26 238.79 484.21 238.79 492.3"/><polygon class="cls-4" points="251.7 484.85 244.69 488.9 244.69 480.81 251.7 476.76 251.7 484.85"/><polygon class="cls-4" points="297.79 441.85 290.78 445.89 290.78 437.8 297.79 433.76 297.79 441.85"/><polygon class="cls-4" points="338.16 418.54 331.16 422.58 331.16 414.49 338.16 410.45 338.16 418.54"/><polygon class="cls-4" points="265.43 460.53 258.43 464.57 258.43 456.48 265.43 452.44 265.43 460.53"/><path class="cls-5" d="M171.48,430.88,71.92,373.4c-4-2.34-3.54-6.42,1.13-9.12l97.29-56.17c4.67-2.7,11.74-3,15.79-.65l99.56,57.48c4.05,2.34,3.54,6.42-1.13,9.12l-97.29,56.17C182.6,432.93,175.53,433.22,171.48,430.88Z"/><path class="cls-4" d="M132.31,493.1,50.15,445.67c-2-1.13-3.55-4.17-3.55-6.78v-6.1c0-2.62,1.59-3.82,3.55-2.68l82.16,47.43c2,1.13,3.55,4.17,3.55,6.78v6.1C135.86,493,134.27,494.23,132.31,493.1Z"/><path class="cls-6" d="M357.6,307.44h0l0-70.95-89.66,12-67.13-38.76c-11.78-6.8-30.87-6.8-42.64,0l-10.46,6.64L2.11,235.76V308h.05c.17,4.33,3.05,8.62,8.77,11.92l148,85.44c11.78,6.8,30.87,6.8,42.64,0l147.21-85.6c5.7-3.29,8.58-7.57,8.76-11.88h.07v-.42Z"/><path class="cls-7" d="M348.77,223.65l-148-85.44c-11.78-6.8-30.87-6.8-42.64,0l-147.2,85.6c-11.78,6.8-11.78,17.82,0,24.62l148,85.44c11.78,6.8,30.87,6.8,42.64,0l147.21-85.6C360.55,241.47,360.54,230.45,348.77,223.65Z"/><path class="cls-5" d="M278.28,228.82,192.05,179c-6.86-4-18-4-24.85,0L81.43,228.92c-6.86,4-6.86,10.38,0,14.35l86.23,49.78c6.86,4,18,4,24.85,0l85.77-49.88C285.14,239.2,285.14,232.78,278.28,228.82Z"/><path class="cls-4" d="M348.77,244l-147.21,85.6c-11.78,6.8-30.87,6.8-42.64,0l-148-85.44C6,241.28,3.15,237.68,2.36,234c-1.1,5.14,1.74,10.51,8.57,14.46l148,85.44c11.78,6.8,30.87,6.8,42.64,0l147.21-85.6c6.84-4,9.68-9.32,8.57-14.46C356.55,237.52,353.71,241.12,348.77,244Z"/><polygon class="cls-4" points="221.46 352.81 214.45 356.85 214.45 348.76 221.46 344.72 221.46 352.81"/><polygon class="cls-4" points="236.12 344.34 229.11 348.39 229.11 340.3 236.12 336.25 236.12 344.34"/><polygon class="cls-4" points="250.77 335.88 243.77 339.93 243.77 331.84 250.77 327.79 250.77 335.88"/><polygon class="cls-4" points="238.79 359.19 231.78 363.24 231.78 355.15 238.79 351.1 238.79 359.19"/><polygon class="cls-4" points="251.7 351.74 244.69 355.79 244.69 347.7 251.7 343.65 251.7 351.74"/><polygon class="cls-4" points="297.79 308.74 290.78 312.78 290.78 304.69 297.79 300.65 297.79 308.74"/><polygon class="cls-4" points="338.16 285.43 331.16 289.47 331.16 281.38 338.16 277.34 338.16 285.43"/><polygon class="cls-4" points="265.43 327.42 258.43 331.46 258.43 323.38 265.43 319.33 265.43 327.42"/><path class="cls-8" d="M357.6,174.33h0l0-71-89.66,12L200.79,76.58c-11.78-6.8-30.87-6.8-42.64,0l-10.46,6.64L2.12,102.64v72.24h0c.17,4.33,3.05,8.62,8.77,11.92l148,85.44c11.78,6.8,30.87,6.8,42.64,0l147.21-85.6c5.7-3.29,8.58-7.57,8.76-11.88h.07v-.41Z"/><path class="cls-9" d="M348.77,90.54,200.78,5.1c-11.78-6.8-30.87-6.8-42.64,0L10.94,90.7c-11.78,6.8-11.78,17.82,0,24.62l148,85.44c11.78,6.8,30.87,6.8,42.64,0l147.21-85.6C360.55,108.36,360.54,97.34,348.77,90.54Z"/><path class="cls-4" d="M348.77,110.86l-147.21,85.6c-11.78,6.8-30.87,6.8-42.64,0L10.93,111c-4.94-2.85-7.78-6.45-8.57-10.16-1.1,5.14,1.74,10.51,8.57,14.46l148,85.44c11.78,6.8,30.87,6.8,42.64,0l147.21-85.6c6.84-4,9.68-9.32,8.57-14.46C356.55,104.41,353.71,108,348.77,110.86Z"/><polygon class="cls-4" points="221.46 219.7 214.45 223.74 214.45 215.65 221.46 211.61 221.46 219.7"/><polygon class="cls-4" points="236.12 211.23 229.11 215.28 229.11 207.19 236.12 203.14 236.12 211.23"/><polygon class="cls-4" points="250.77 202.77 243.77 206.82 243.77 198.73 250.77 194.68 250.77 202.77"/><polygon class="cls-4" points="238.79 226.08 231.78 230.13 231.78 222.04 238.79 217.99 238.79 226.08"/><polygon class="cls-4" points="251.7 218.63 244.69 222.68 244.69 214.59 251.7 210.54 251.7 218.63"/><polygon class="cls-4" points="297.79 175.63 290.78 179.67 290.78 171.58 297.79 167.54 297.79 175.63"/><polygon class="cls-4" points="338.16 152.32 331.16 156.36 331.16 148.27 338.16 144.23 338.16 152.32"/><polygon class="cls-4" points="265.43 194.31 258.43 198.35 258.43 190.27 265.43 186.22 265.43 194.31"/><path class="cls-4" d="M132.31,363,50.15,315.54c-2-1.13-3.55-4.17-3.55-6.78v-6.1c0-2.61,1.59-3.82,3.55-2.68l82.16,47.43c2,1.13,3.55,4.17,3.55,6.78v6.1C135.86,362.9,134.27,364.1,132.31,363Z"/><path class="cls-4" d="M132.31,232.83,50.15,185.4c-2-1.13-3.55-4.17-3.55-6.78v-6.1c0-2.61,1.59-3.82,3.55-2.68l82.16,47.43c2,1.13,3.55,4.17,3.55,6.78v6.1C135.86,232.76,134.27,234,132.31,232.83Z"/><path class="cls-10" d="M179.84,140.16a17.19,17.19,0,0,1-8.56-2.11L115.63,105.4c-2.49-1.46-3.87-3.47-3.87-5.66s1.37-4.2,3.87-5.66L171,61.37a18.4,18.4,0,0,1,17.13,0L243.76,94c2.49,1.46,3.87,3.47,3.87,5.66s-1.37,4.2-3.87,5.66l-55.35,32.71A17.31,17.31,0,0,1,179.84,140.16Zm-.29-78.7a15,15,0,0,0-7.47,1.81L116.73,96c-1.79,1-2.78,2.38-2.78,3.75s1,2.69,2.78,3.74l55.65,32.65a16.3,16.3,0,0,0,15,0l55.35-32.71c1.79-1,2.78-2.38,2.78-3.75s-1-2.69-2.78-3.74L187,63.27A15.12,15.12,0,0,0,179.55,61.46Z"/></g></g></svg>