<svg xmlns="http://www.w3.org/2000/svg" xmlns:xlink="http://www.w3.org/1999/xlink" viewBox="0 0 359.21 593.2"><defs><style>.cls-1{fill:#07a7d3;}.cls-2{fill:url(#linear-gradient);}.cls-3{fill:url(#radial-gradient);}.cls-4{fill:#fff;}.cls-5{fill:#10113c;opacity:0.4;isolation:isolate;}.cls-6{fill:url(#linear-gradient-2);}.cls-7{fill:url(#radial-gradient-2);}.cls-8{fill:url(#linear-gradient-3);}.cls-9{fill:url(#radial-gradient-3);}.cls-10{fill:#7d7c7d;}</style><linearGradient id="linear-gradient" x1="-19.32" y1="143.32" x2="232.03" y2="143.32" gradientTransform="matrix(1, 0, 0, -1, 0, 585.13)" gradientUnits="userSpaceOnUse"><stop offset="0" stop-color="#2ac3ea"/><stop offset="0.04" stop-color="#2db9e1"/><stop offset="0.4" stop-color="#2c7baa"/><stop offset="0.69" stop-color="#29568c"/><stop offset="0.89" stop-color="#273f7b"/><stop offset="1" stop-color="#273675"/></linearGradient><radialGradient id="radial-gradient" cx="-63.89" cy="331.79" r="561.32" gradientTransform="matrix(1, 0, 0, -1, 0, 585.13)" gradientUnits="userSpaceOnUse"><stop offset="0" stop-color="#2ac3ea"/><stop offset="0.1" stop-color="#2db7df"/><stop offset="0.28" stop-color="#2d9dc8"/><stop offset="0.53" stop-color="#2c79a8"/><stop offset="0.84" stop-color="#284e86"/><stop offset="1" stop-color="#273675"/></radialGradient><linearGradient id="linear-gradient-2" x1="-19.32" y1="276.79" x2="232.03" y2="276.79" xlink:href="#linear-gradient"/><radialGradient id="radial-gradient-2" cx="-63.89" cy="465.26" r="561.32" xlink:href="#radial-gradient"/><linearGradient id="linear-gradient-3" x1="-19.32" y1="410.26" x2="232.03" y2="410.26" xlink:href="#linear-gradient"/><radialGradient id="radial-gradient-3" cx="180.33" cy="481.92" r="145.63" gradientTransform="matrix(1, 0, 0, -1, 0, 585.13)" gradientUnits="userSpaceOnUse"><stop offset="0" stop-color="#bbd75b"/><stop offset="1" stop-color="#78c47f"/></radialGradient></defs><title>Asset 1</title><g id="Layer_2" data-name="Layer 2"><g id="Layer_1-2" data-name="Layer 1"><path class="cls-1" d="M180,593.2c-8,0-16-1.75-22.07-5.28L9.54,502.27C3.38,498.72,0,493.91,0,488.73s3.39-10,9.54-13.54l147.6-85.82c12.18-7,32-7,44.14,0L349.66,475c6.16,3.56,9.55,8.37,9.55,13.54s-3.39,10-9.55,13.53l-147.6,85.82C196,591.45,188,593.2,180,593.2Zm-.78-206.4c-7.49,0-15,1.66-20.68,4.94L10.93,477.57c-5.27,3-8.16,7-8.16,11.15s2.9,8.1,8.16,11.14l148.38,85.67c11.4,6.59,30,6.59,41.37,0l147.6-85.82c5.27-3,8.17-7,8.17-11.16s-2.9-8.09-8.17-11.14L199.9,391.74C194.2,388.46,186.71,386.8,179.21,386.8Z"/><path class="cls-2" d="M358.56,441.73h0l0-71.14-89.9,12-67.31-38.87c-11.81-6.82-31-6.82-42.76,0l-10.48,6.66-146,19.49V442.3h0c.17,4.35,3.06,8.64,8.79,11.95l148.38,85.67c11.81,6.82,30.95,6.82,42.76,0l147.6-85.83c5.71-3.3,8.6-7.59,8.78-11.91h.07v-.43Z"/><path class="cls-3" d="M349.7,357.72,201.32,272.05c-11.81-6.82-30.95-6.82-42.76,0L11,357.89c-11.81,6.82-11.81,17.87,0,24.69l148.38,85.66c11.81,6.83,30.95,6.83,42.76,0l147.6-85.83C361.51,375.59,361.51,364.53,349.7,357.72Z"/><path class="cls-4" d="M349.7,378.1,202.1,463.93c-11.81,6.82-30.95,6.82-42.76,0L11,378.26c-5-2.86-7.8-6.46-8.6-10.19-1.11,5.16,1.74,10.54,8.6,14.5l148.38,85.67c11.81,6.82,30.95,6.82,42.76,0l147.6-85.83c6.86-4,9.7-9.34,8.6-14.5C357.5,371.64,354.65,375.23,349.7,378.1Z"/><polygon class="cls-4" points="222.05 487.23 215.03 491.27 215.03 483.17 222.05 479.12 222.05 487.23"/><polygon class="cls-4" points="236.75 478.74 229.72 482.8 229.72 474.69 236.75 470.63 236.75 478.74"/><polygon class="cls-4" points="251.44 470.25 244.42 474.31 244.42 466.19 251.44 462.14 251.44 470.25"/><polygon class="cls-4" points="239.43 493.63 232.4 497.69 232.4 489.56 239.43 485.51 239.43 493.63"/><polygon class="cls-4" points="252.37 486.15 245.34 490.2 245.34 482.1 252.37 478.05 252.37 486.15"/><polygon class="cls-4" points="298.58 443.04 291.56 447.1 291.56 438.99 298.58 434.93 298.58 443.04"/><polygon class="cls-4" points="339.06 419.67 332.04 423.73 332.04 415.61 339.06 411.56 339.06 419.67"/><polygon class="cls-4" points="266.14 461.76 259.11 465.82 259.11 457.71 266.14 453.65 266.14 461.76"/><path class="cls-5" d="M171.94,432,72.11,374.4c-4.06-2.34-3.55-6.43,1.14-9.14l97.55-56.32c4.69-2.71,11.77-3,15.83-.66l99.83,57.64c4.06,2.35,3.55,6.43-1.14,9.15l-97.55,56.32C183.08,434.1,176,434.39,171.94,432Z"/><path class="cls-4" d="M132.66,494.42,50.28,446.86c-2-1.14-3.56-4.18-3.56-6.79V434c0-2.62,1.59-3.84,3.56-2.69l82.38,47.56a8.5,8.5,0,0,1,3.56,6.79v6.12C136.22,494.35,134.63,495.57,132.66,494.42Z"/><path class="cls-6" d="M358.56,308.28h0l0-71.14-89.9,12-67.31-38.86c-11.81-6.83-31-6.83-42.76,0l-10.48,6.66-146,19.47v72.44h.05c.17,4.34,3.06,8.64,8.79,11.95l148.38,85.66c11.81,6.83,31,6.83,42.76,0l147.6-85.83c5.71-3.3,8.6-7.59,8.78-11.9l.07,0v-.4Z"/><path class="cls-7" d="M349.7,224.26,201.32,138.59c-11.81-6.82-30.95-6.82-42.76,0L11,224.42c-11.81,6.82-11.81,17.87,0,24.69l148.38,85.66c11.81,6.82,30.95,6.82,42.76,0l147.6-85.84C361.51,242.12,361.51,231.08,349.7,224.26Z"/><path class="cls-5" d="M279,229.43l-86.46-49.91c-6.88-4-18-4-24.91,0l-86,50c-6.88,4-6.88,10.41,0,14.38l86.46,49.92c6.88,4,18,4,24.91,0l86-50C285.9,239.85,285.9,233.42,279,229.43Z"/><path class="cls-4" d="M349.7,244.62,202.1,330.46c-11.81,6.82-30.95,6.82-42.76,0L11,244.79c-5-2.86-7.8-6.46-8.6-10.19-1.11,5.16,1.74,10.54,8.6,14.5l148.38,85.67c11.81,6.82,30.95,6.82,42.76,0l147.6-85.84c6.86-4,9.7-9.33,8.6-14.5C357.5,238.17,354.65,241.77,349.7,244.62Z"/><polygon class="cls-4" points="222.05 353.75 215.03 357.81 215.03 349.7 222.05 345.64 222.05 353.75"/><polygon class="cls-4" points="236.75 345.27 229.72 349.32 229.72 341.21 236.75 337.17 236.75 345.27"/><polygon class="cls-4" points="251.44 336.79 244.42 340.85 244.42 332.74 251.44 328.68 251.44 336.79"/><polygon class="cls-4" points="239.43 360.15 232.4 364.21 232.4 356.11 239.43 352.05 239.43 360.15"/><polygon class="cls-4" points="252.37 352.69 245.34 356.75 245.34 348.63 252.37 344.57 252.37 352.69"/><polygon class="cls-4" points="298.58 309.57 291.56 313.63 291.56 305.51 298.58 301.46 298.58 309.57"/><polygon class="cls-4" points="339.06 286.19 332.04 290.25 332.04 282.14 339.06 278.08 339.06 286.19"/><polygon class="cls-4" points="266.14 328.31 259.11 332.36 259.11 324.25 266.14 320.19 266.14 328.31"/><path class="cls-8" d="M358.56,174.8h0l0-71.14-89.9,12L201.33,76.78c-11.81-6.82-31-6.82-42.76,0l-10.48,6.66-146,19.47v72.44h.05c.17,4.34,3.06,8.64,8.79,11.95L159.35,273c11.81,6.82,31,6.82,42.76,0l147.6-85.83c5.71-3.3,8.6-7.59,8.78-11.91h.07v-.41Z"/><path class="cls-9" d="M349.7,90.79,201.32,5.12c-11.81-6.83-30.95-6.83-42.76,0L11,91C-.85,97.77-.85,108.82,11,115.64L159.34,201.3c11.81,6.82,30.95,6.82,42.76,0l147.6-85.83C361.51,108.65,361.51,97.61,349.7,90.79Z"/><path class="cls-4" d="M349.7,111.17,202.1,197c-11.81,6.83-30.95,6.83-42.76,0L11,111.33c-5-2.86-7.8-6.46-8.6-10.19-1.11,5.16,1.74,10.54,8.6,14.5L159.34,201.3c11.81,6.82,30.95,6.82,42.76,0l147.6-85.83c6.86-4,9.7-9.34,8.6-14.5C357.5,104.7,354.65,108.3,349.7,111.17Z"/><polygon class="cls-4" points="222.05 220.28 215.03 224.34 215.03 216.24 222.05 212.18 222.05 220.28"/><polygon class="cls-4" points="236.75 211.81 229.72 215.87 229.72 207.75 236.75 203.69 236.75 211.81"/><polygon class="cls-4" points="251.44 203.32 244.42 207.38 244.42 199.26 251.44 195.21 251.44 203.32"/><polygon class="cls-4" points="239.43 226.69 232.4 230.75 232.4 222.63 239.43 218.59 239.43 226.69"/><polygon class="cls-4" points="252.37 219.22 245.34 223.28 245.34 215.16 252.37 211.12 252.37 219.22"/><polygon class="cls-4" points="298.58 176.1 291.56 180.16 291.56 172.04 298.58 168 298.58 176.1"/><polygon class="cls-4" points="339.06 152.74 332.04 156.78 332.04 148.68 339.06 144.63 339.06 152.74"/><polygon class="cls-4" points="266.14 194.84 259.11 198.9 259.11 190.78 266.14 186.72 266.14 194.84"/><path class="cls-4" d="M132.66,364,50.28,316.39a8.54,8.54,0,0,1-3.56-6.8v-6.12c0-2.62,1.59-3.83,3.56-2.69l82.38,47.56c2,1.14,3.56,4.18,3.56,6.8v6.12C136.22,363.88,134.63,365.08,132.66,364Z"/><path class="cls-4" d="M132.66,233.46,50.28,185.9c-2-1.14-3.56-4.18-3.56-6.8V173c0-2.62,1.59-3.83,3.56-2.69l82.38,47.56c2,1.14,3.56,4.18,3.56,6.8v6.12C136.22,233.39,134.63,234.6,132.66,233.46Z"/><path class="cls-10" d="M180.49,141.43a17.8,17.8,0,0,1-8.7-2.1l-56.55-32.65c-2.54-1.46-3.93-3.47-3.93-5.66s1.39-4.2,3.93-5.66l56.25-32.71a19,19,0,0,1,17.41,0L245.45,95.3c2.54,1.46,3.93,3.47,3.93,5.66s-1.39,4.2-3.93,5.66L189.2,139.33A17.87,17.87,0,0,1,180.49,141.43Zm-.3-78.69a15.56,15.56,0,0,0-7.6,1.81L116.34,97.26c-1.82,1-2.83,2.38-2.83,3.75s1,2.69,2.82,3.73l56.55,32.65a16.74,16.74,0,0,0,15.19,0l56.25-32.71c1.82-1,2.83-2.38,2.83-3.75s-1-2.69-2.82-3.73L187.78,64.55A15.38,15.38,0,0,0,180.19,62.74Z"/></g></g></svg>