<svg xmlns="http://www.w3.org/2000/svg" xmlns:xlink="http://www.w3.org/1999/xlink" viewBox="0 0 600.14 350.19"><defs><style>.cls-1{fill:none;}.cls-2{isolation:isolate;}.cls-3{fill:#020230;}.cls-4{clip-path:url(#clip-path);}.cls-22,.cls-5{opacity:0.8;}.cls-5,.cls-6{mix-blend-mode:lighten;}.cls-6{fill:url(#_ÂÁ_Ï_ÌÌ_È_ËÂÌÚ_144);}.cls-7{fill:url(#_ÂÁ_Ï_ÌÌ_È_ËÂÌÚ_144-2);}.cls-8{fill:url(#_ÂÁ_Ï_ÌÌ_È_ËÂÌÚ_144-3);}.cls-9{fill:url(#_ÂÁ_Ï_ÌÌ_È_ËÂÌÚ_144-4);}.cls-10{fill:url(#_ÂÁ_Ï_ÌÌ_È_ËÂÌÚ_144-5);}.cls-11{fill:url(#_ÂÁ_Ï_ÌÌ_È_ËÂÌÚ_144-6);}.cls-12{fill:url(#_ÂÁ_Ï_ÌÌ_È_ËÂÌÚ_144-7);}.cls-13{fill:url(#_ÂÁ_Ï_ÌÌ_È_ËÂÌÚ_144-8);}.cls-14{fill:url(#_ÂÁ_Ï_ÌÌ_È_ËÂÌÚ_144-9);}.cls-15{fill:url(#_ÂÁ_Ï_ÌÌ_È_ËÂÌÚ_144-10);}.cls-16{fill:url(#_ÂÁ_Ï_ÌÌ_È_ËÂÌÚ_144-11);}.cls-17{fill:url(#_ÂÁ_Ï_ÌÌ_È_ËÂÌÚ_144-12);}.cls-18{fill:url(#_ÂÁ_Ï_ÌÌ_È_ËÂÌÚ_144-13);}.cls-19,.cls-20,.cls-21{fill:#172f78;}.cls-19{opacity:0.4;}.cls-20{opacity:0.6;}.cls-22{fill:url(#_ÂÁ_Ï_ÌÌ_È_ËÂÌÚ_50);}</style><clipPath id="clip-path"><rect class="cls-1" x="0.14" y="0.25" width="600" height="349.88"/></clipPath><linearGradient id="_ÂÁ_Ï_ÌÌ_È_ËÂÌÚ_144" x1="1672.72" y1="-551.01" x2="1533.12" y2="-442.1" gradientTransform="translate(2121.58 -164.79) rotate(180)" gradientUnits="userSpaceOnUse"><stop offset="0" stop-color="#183372"/><stop offset="1" stop-color="#020230"/></linearGradient><linearGradient id="_ÂÁ_Ï_ÌÌ_È_ËÂÌÚ_144-2" x1="2185.01" y1="-198.16" x2="1978.06" y2="-262.18" xlink:href="#_ÂÁ_Ï_ÌÌ_È_ËÂÌÚ_144"/><linearGradient id="_ÂÁ_Ï_ÌÌ_È_ËÂÌÚ_144-3" x1="1586.17" y1="-445.49" x2="1850.48" y2="-445.49" xlink:href="#_ÂÁ_Ï_ÌÌ_È_ËÂÌÚ_144"/><linearGradient id="_ÂÁ_Ï_ÌÌ_È_ËÂÌÚ_144-4" x1="1510.17" y1="-352.3" x2="1734.7" y2="-352.3" xlink:href="#_ÂÁ_Ï_ÌÌ_È_ËÂÌÚ_144"/><linearGradient id="_ÂÁ_Ï_ÌÌ_È_ËÂÌÚ_144-5" x1="1939.38" y1="-361.87" x2="1894.5" y2="-257.09" xlink:href="#_ÂÁ_Ï_ÌÌ_È_ËÂÌÚ_144"/><linearGradient id="_ÂÁ_Ï_ÌÌ_È_ËÂÌÚ_144-6" x1="1734.2" y1="-342.87" x2="1920.63" y2="-342.87" xlink:href="#_ÂÁ_Ï_ÌÌ_È_ËÂÌÚ_144"/><linearGradient id="_ÂÁ_Ï_ÌÌ_È_ËÂÌÚ_144-7" x1="1552.71" y1="-281.86" x2="1816.81" y2="-281.86" xlink:href="#_ÂÁ_Ï_ÌÌ_È_ËÂÌÚ_144"/><linearGradient id="_ÂÁ_Ï_ÌÌ_È_ËÂÌÚ_144-8" x1="1640.71" y1="-221.87" x2="1904.81" y2="-221.87" xlink:href="#_ÂÁ_Ï_ÌÌ_È_ËÂÌÚ_144"/><linearGradient id="_ÂÁ_Ï_ÌÌ_È_ËÂÌÚ_144-9" x1="2167.25" y1="-358.32" x2="2013.26" y2="-473.2" xlink:href="#_ÂÁ_Ï_ÌÌ_È_ËÂÌÚ_144"/><linearGradient id="_ÂÁ_Ï_ÌÌ_È_ËÂÌÚ_144-10" x1="1735.48" y1="-470.42" x2="1900.39" y2="-470.42" xlink:href="#_ÂÁ_Ï_ÌÌ_È_ËÂÌÚ_144"/><linearGradient id="_ÂÁ_Ï_ÌÌ_È_ËÂÌÚ_144-11" x1="2107.09" y1="-562.55" x2="1935.44" y2="-464.25" xlink:href="#_ÂÁ_Ï_ÌÌ_È_ËÂÌÚ_144"/><linearGradient id="_ÂÁ_Ï_ÌÌ_È_ËÂÌÚ_144-12" x1="1447.44" y1="-295.48" x2="1608.81" y2="-295.48" xlink:href="#_ÂÁ_Ï_ÌÌ_È_ËÂÌÚ_144"/><linearGradient id="_ÂÁ_Ï_ÌÌ_È_ËÂÌÚ_144-13" x1="1521.94" y1="-124.82" x2="1627.32" y2="-247.02" xlink:href="#_ÂÁ_Ï_ÌÌ_È_ËÂÌÚ_144"/><linearGradient id="_ÂÁ_Ï_ÌÌ_È_ËÂÌÚ_50" x1="300.14" y1="350.19" x2="300.14" y2="0.19" gradientUnits="userSpaceOnUse"><stop offset="0" stop-color="#020230"/><stop offset="0.27" stop-color="#030534"/><stop offset="0.56" stop-color="#070d40"/><stop offset="0.84" stop-color="#0d1b55"/><stop offset="1" stop-color="#112564"/></linearGradient></defs><title>Asset 2</title><g class="cls-2"><g id="Layer_2" data-name="Layer 2"><g id="_ÎÓÈ_1" data-name="—ÎÓÈ_1"><rect class="cls-3" x="0.14" y="0.19" width="600" height="350"/><g class="cls-4"><g class="cls-5"><polygon class="cls-6" points="600.14 350.13 600.14 221.47 390.1 350.13 600.14 350.13"/><polygon class="cls-7" points="124.45 211.27 216.77 0.25 0.14 0.25 0.14 138.02 124.45 211.27"/><polygon class="cls-8" points="360.1 350.13 390.1 350.13 535.41 261.12 124.45 211.27 360.1 350.13"/><polygon class="cls-9" points="535.41 261.12 480.87 113.9 310.88 233.88 535.41 261.12"/><polygon class="cls-10" points="265.92 122.26 216.77 0.25 124.45 211.27 265.92 122.26"/><polygon class="cls-11" points="310.88 233.88 265.92 122.26 124.45 211.27 310.88 233.88"/><polygon class="cls-12" points="310.88 233.88 480.87 113.9 216.77 0.25 310.88 233.88"/><polygon class="cls-13" points="480.87 113.9 438.77 0.25 216.77 0.25 480.87 113.9"/><polygon class="cls-14" points="209.05 261.12 0.14 138.02 0.14 350.13 209.05 261.12"/><polygon class="cls-15" points="360.1 350.13 209.05 261.12 195.19 350.13 360.1 350.13"/><polygon class="cls-16" points="195.19 350.13 209.05 261.12 0.14 350.13 195.19 350.13"/><polygon class="cls-17" points="535.41 261.12 600.14 221.47 600.14 105.76 438.77 0.25 535.41 261.12"/><polygon class="cls-18" points="600.14 105.76 600.14 0.25 438.77 0.25 600.14 105.76"/></g></g><rect class="cls-19" x="379.48" y="304.79" width="168.26" height="0.55" transform="translate(-91.11 288.09) rotate(-31.59)"/><rect class="cls-20" x="343.41" y="-83.26" width="0.55" height="276.38" transform="translate(157.26 348.83) rotate(-66.69)"/><polygon class="cls-21" points="303.39 143.8 286.79 99.4 422.68 115.19 422.62 115.74 287.61 100.05 303.9 143.6 303.39 143.8"/><polygon class="cls-20" points="358.27 349.36 208 261.09 11.95 345.39 11.73 344.89 208.04 260.48 208.16 260.55 358.55 348.89 358.27 349.36"/><rect class="cls-20" x="62.02" y="102.5" width="0.55" height="144.29" transform="translate(-119.8 139.66) rotate(-59.49)"/><rect class="cls-22" x="0.14" y="0.19" width="600" height="350"/></g></g></g></svg>