<svg xmlns="http://www.w3.org/2000/svg" xmlns:xlink="http://www.w3.org/1999/xlink" viewBox="0 0 80.47 132.89"><defs><style>.cls-1{fill:#03a7d3;}.cls-2{fill:url(#_ÂÁ_Ï_ÌÌ_È_ËÂÌÚ_354);}.cls-3{fill:url(#_ÂÁ_Ï_ÌÌ_È_ËÂÌÚ_346);}.cls-4{fill:#fff;}.cls-5{fill:#06033e;opacity:0.4;}.cls-6{fill:url(#_ÂÁ_Ï_ÌÌ_È_ËÂÌÚ_354-2);}.cls-7{fill:url(#_ÂÁ_Ï_ÌÌ_È_ËÂÌÚ_346-2);}.cls-8{fill:url(#_ÂÁ_Ï_ÌÌ_È_ËÂÌÚ_354-3);}.cls-9{fill:url(#_ÂÁ_Ï_ÌÌ_È_ËÂÌÚ_346-3);}</style><linearGradient id="_ÂÁ_Ï_ÌÌ_È_ËÂÌÚ_354" x1="-4.33" y1="98.98" x2="51.98" y2="98.98" gradientUnits="userSpaceOnUse"><stop offset="0" stop-color="#01c8ef"/><stop offset="0.13" stop-color="#04b1dd"/><stop offset="0.55" stop-color="#0e6ba7"/><stop offset="0.85" stop-color="#154085"/><stop offset="1" stop-color="#172f78"/></linearGradient><radialGradient id="_ÂÁ_Ï_ÌÌ_È_ËÂÌÚ_346" cx="-14.31" cy="56.75" r="125.75" gradientUnits="userSpaceOnUse"><stop offset="0" stop-color="#01c8ef"/><stop offset="0.14" stop-color="#03bae4"/><stop offset="0.4" stop-color="#0895c8"/><stop offset="0.76" stop-color="#115a9a"/><stop offset="1" stop-color="#172f78"/></radialGradient><linearGradient id="_ÂÁ_Ï_ÌÌ_È_ËÂÌÚ_354-2" x1="-4.33" y1="69.08" x2="51.98" y2="69.08" xlink:href="#_ÂÁ_Ï_ÌÌ_È_ËÂÌÚ_354"/><radialGradient id="_ÂÁ_Ï_ÌÌ_È_ËÂÌÚ_346-2" cx="-14.31" cy="26.85" r="125.75" xlink:href="#_ÂÁ_Ï_ÌÌ_È_ËÂÌÚ_346"/><linearGradient id="_ÂÁ_Ï_ÌÌ_È_ËÂÌÚ_354-3" x1="-4.33" y1="39.18" x2="51.98" y2="39.18" xlink:href="#_ÂÁ_Ï_ÌÌ_È_ËÂÌÚ_354"/><radialGradient id="_ÂÁ_Ï_ÌÌ_È_ËÂÌÚ_346-3" cx="-14.31" cy="-3.05" r="125.75" xlink:href="#_ÂÁ_Ï_ÌÌ_È_ËÂÌÚ_346"/></defs><title>Asset 1</title><g id="Layer_2" data-name="Layer 2"><g id="_ÎÓÈ_1" data-name="—ÎÓÈ_1"><path class="cls-1" d="M40.32,132.89a10.05,10.05,0,0,1-4.94-1.18L2.14,112.52a3.22,3.22,0,0,1,0-6.07L35.2,87.22a11,11,0,0,1,9.89,0l33.24,19.19a3.22,3.22,0,0,1,0,6.07L45.27,131.71A10.09,10.09,0,0,1,40.32,132.89Zm-.17-46.24a9.48,9.48,0,0,0-4.64,1.11L2.45,107a2.62,2.62,0,0,0,0,5l33.24,19.19a10.23,10.23,0,0,0,9.27,0L78,112a2.62,2.62,0,0,0,0-5L44.78,87.76A9.44,9.44,0,0,0,40.15,86.65Z"/><path class="cls-2" d="M80.33,99h0V83L60.18,85.71,45.1,77a10.57,10.57,0,0,0-9.58,0l-2.35,1.49L.47,82.86V99.08h0a3.37,3.37,0,0,0,2,2.68L35.7,121a10.57,10.57,0,0,0,9.58,0l33.06-19.23a3.4,3.4,0,0,0,2-2.67h0Z"/><path class="cls-3" d="M78.34,80.14,45.1,60.94a10.63,10.63,0,0,0-9.58,0L2.46,80.17c-2.65,1.53-2.65,4,0,5.53L35.7,104.89a10.57,10.57,0,0,0,9.58,0L78.34,85.67C81,84.14,81,81.66,78.34,80.14Z"/><path class="cls-4" d="M78.34,84.7,45.28,103.93a10.57,10.57,0,0,1-9.58,0L2.46,84.74A3.68,3.68,0,0,1,.53,82.45c-.25,1.16.39,2.37,1.93,3.25L35.7,104.89a10.57,10.57,0,0,0,9.58,0L78.34,85.67c1.54-.89,2.18-2.1,1.93-3.25A3.69,3.69,0,0,1,78.34,84.7Z"/><polygon class="cls-4" points="49.74 109.15 48.17 110.06 48.17 108.24 49.74 107.33 49.74 109.15"/><polygon class="cls-4" points="53.04 107.25 51.46 108.16 51.46 106.34 53.04 105.43 53.04 107.25"/><polygon class="cls-4" points="56.33 105.35 54.76 106.25 54.76 104.44 56.33 103.53 56.33 105.35"/><polygon class="cls-4" points="53.64 110.58 52.06 111.49 52.06 109.67 53.64 108.77 53.64 110.58"/><polygon class="cls-4" points="56.54 108.91 54.96 109.82 54.96 108 56.54 107.09 56.54 108.91"/><polygon class="cls-4" points="66.89 99.25 65.32 100.16 65.32 98.34 66.89 97.43 66.89 99.25"/><polygon class="cls-4" points="75.96 94.01 74.39 94.92 74.39 93.11 75.96 92.2 75.96 94.01"/><polygon class="cls-4" points="59.62 103.45 58.05 104.35 58.05 102.54 59.62 101.63 59.62 103.45"/><path class="cls-5" d="M38.52,96.79,16.15,83.87c-.91-.52-.79-1.44.26-2L38.26,69.21a4,4,0,0,1,3.55-.15L64.17,82c.91.53.8,1.45-.25,2L42.06,96.64A3.93,3.93,0,0,1,38.52,96.79Z"/><path class="cls-4" d="M29.72,110.76,11.26,100.11a1.92,1.92,0,0,1-.79-1.53V97.21c0-.58.35-.85.79-.6l18.46,10.66a1.9,1.9,0,0,1,.8,1.52v1.37C30.52,110.75,30.16,111,29.72,110.76Z"/><path class="cls-6" d="M80.33,69.06h0V53.12L60.18,55.81,45.1,47.1a10.57,10.57,0,0,0-9.58,0l-2.35,1.49L.47,53V69.18h0a3.37,3.37,0,0,0,2,2.68L35.7,91.05a10.57,10.57,0,0,0,9.58,0L78.34,71.82a3.4,3.4,0,0,0,2-2.67h0Z"/><path class="cls-7" d="M78.34,50.24,45.1,31.05a10.57,10.57,0,0,0-9.58,0L2.46,50.27c-2.65,1.53-2.65,4,0,5.53L35.7,75a10.57,10.57,0,0,0,9.58,0L78.34,55.77C81,54.24,81,51.76,78.34,50.24Z"/><path class="cls-5" d="M62.51,51.4,43.14,40.22a6.16,6.16,0,0,0-5.58,0L18.29,51.42c-1.54.89-1.54,2.33,0,3.22L37.66,65.82a6.16,6.16,0,0,0,5.58,0l19.27-11.2C64.05,53.73,64.05,52.29,62.51,51.4Z"/><path class="cls-4" d="M78.34,54.8,45.28,74a10.57,10.57,0,0,1-9.58,0L2.46,54.84A3.68,3.68,0,0,1,.53,52.55c-.25,1.16.39,2.37,1.93,3.25L35.7,75a10.57,10.57,0,0,0,9.58,0L78.34,55.77c1.54-.89,2.18-2.1,1.93-3.25A3.69,3.69,0,0,1,78.34,54.8Z"/><polygon class="cls-4" points="49.74 79.25 48.17 80.16 48.17 78.34 49.74 77.43 49.74 79.25"/><polygon class="cls-4" points="53.04 77.35 51.46 78.26 51.46 76.44 53.04 75.53 53.04 77.35"/><polygon class="cls-4" points="56.33 75.45 54.76 76.36 54.76 74.54 56.33 73.63 56.33 75.45"/><polygon class="cls-4" points="53.64 80.68 52.06 81.59 52.06 79.77 53.64 78.87 53.64 80.68"/><polygon class="cls-4" points="56.54 79.01 54.96 79.92 54.96 78.1 56.54 77.19 56.54 79.01"/><polygon class="cls-4" points="66.89 69.35 65.32 70.26 65.32 68.44 66.89 67.53 66.89 69.35"/><polygon class="cls-4" points="75.96 64.11 74.39 65.02 74.39 63.2 75.96 62.3 75.96 64.11"/><polygon class="cls-4" points="59.62 73.55 58.05 74.45 58.05 72.64 59.62 71.73 59.62 73.55"/><path class="cls-8" d="M80.33,39.16h0V23.22L60.18,25.91,45.1,17.2a10.57,10.57,0,0,0-9.58,0l-2.35,1.49L.47,23.06V39.28h0a3.37,3.37,0,0,0,2,2.68L35.7,61.15a10.57,10.57,0,0,0,9.58,0L78.34,41.92a3.4,3.4,0,0,0,2-2.67h0Z"/><path class="cls-9" d="M78.34,20.34,45.1,1.15a10.57,10.57,0,0,0-9.58,0L2.46,20.37c-2.65,1.53-2.65,4,0,5.53L35.7,45.09a10.57,10.57,0,0,0,9.58,0L78.34,25.87C81,24.34,81,21.86,78.34,20.34Z"/><path class="cls-4" d="M78.34,24.9,45.28,44.13a10.57,10.57,0,0,1-9.58,0L2.46,24.94A3.68,3.68,0,0,1,.53,22.65C.28,23.81.92,25,2.46,25.9L35.7,45.09a10.57,10.57,0,0,0,9.58,0L78.34,25.87c1.54-.89,2.18-2.1,1.93-3.25A3.69,3.69,0,0,1,78.34,24.9Z"/><polygon class="cls-4" points="49.74 49.35 48.17 50.26 48.17 48.44 49.74 47.53 49.74 49.35"/><polygon class="cls-4" points="53.04 47.45 51.46 48.36 51.46 46.54 53.04 45.63 53.04 47.45"/><polygon class="cls-4" points="56.33 45.55 54.76 46.46 54.76 44.64 56.33 43.73 56.33 45.55"/><polygon class="cls-4" points="53.64 50.78 52.06 51.69 52.06 49.88 53.64 48.97 53.64 50.78"/><polygon class="cls-4" points="56.54 49.11 54.96 50.02 54.96 48.2 56.54 47.29 56.54 49.11"/><polygon class="cls-4" points="66.89 39.45 65.32 40.36 65.32 38.54 66.89 37.63 66.89 39.45"/><polygon class="cls-4" points="75.96 34.21 74.39 35.12 74.39 33.31 75.96 32.4 75.96 34.21"/><polygon class="cls-4" points="59.62 43.65 58.05 44.55 58.05 42.74 59.62 41.83 59.62 43.65"/><path class="cls-4" d="M29.72,81.53,11.26,70.88a1.92,1.92,0,0,1-.79-1.53V68c0-.59.35-.86.79-.6L29.72,78a1.93,1.93,0,0,1,.8,1.53v1.37C30.52,81.52,30.16,81.78,29.72,81.53Z"/><path class="cls-4" d="M29.72,52.3,11.26,41.64a1.89,1.89,0,0,1-.79-1.52V38.75c0-.59.35-.86.79-.6L29.72,48.8a1.93,1.93,0,0,1,.8,1.53V51.7C30.52,52.28,30.16,52.55,29.72,52.3Z"/></g></g></svg>